<svg width="45" height="41" fill="none" xmlns="http://www.w3.org/2000/svg"><path d="m28.564 25.116-.06.029-.037.053-1.767 2.53-.045.065v3.709c0 .304-.216.564-.717.78-.493.212-1.184.342-1.945.417-1.195.117-2.498.095-3.366.08-.235-.004-.438-.008-.599-.008-1.544 0-2.563-.064-3.234-.184-.68-.122-.942-.292-1.051-.445-.11-.155-.115-.356-.09-.716l.005-.07c.023-.319.052-.717-.054-1.158v-2.326l-.003-.682c-.007-1.186-.014-2.435.155-3.533.203-1.319.645-2.323 1.549-2.757l6.653-3.234c1.023-.5 1.56-.949 1.803-1.67.116-.346.159-.74.175-1.202.011-.323.01-.693.007-1.114a110.834 110.834 0 0 1-.001-.925c0-.736.001-1.364-.03-1.888-.036-.606-.115-1.108-.305-1.503-.197-.41-.505-.69-.96-.861-.44-.166-1.011-.228-1.742-.228h-1.529c-.498 0-.835.324-1.052.743-.216.415-.343.97-.42 1.557-.136 1.018-.13 2.209-.127 3.097l.001.389c0 .302-.208.55-.697.746-.484.194-1.162.3-1.912.351-1.058.072-2.19.03-3.036 0a27.581 27.581 0 0 0-.892-.024c-.256 0-.524-.159-.796-.503-.269-.34-.51-.825-.711-1.382-.403-1.114-.625-2.453-.625-3.335 0-5.398 3.32-9.664 7.53-9.664h6.213c2.816 0 5.192 1.443 6.872 3.79 1.683 2.35 2.662 5.601 2.662 9.178 0 5.369-1.895 9.997-5.823 11.898zM17.196 40.218c-.373 0-.613-.148-.784-.403-.183-.272-.294-.677-.352-1.19-.058-.507-.06-1.089-.047-1.695.004-.212.01-.427.017-.643.011-.395.023-.789.023-1.159 0-.2.083-.364.26-.512.184-.154.467-.284.843-.386.75-.203 1.786-.273 2.902-.271 1.113.002 2.284.074 3.296.147l.619.045c.734.054 1.348.1 1.719.1h.119c.413 0 .713 0 .954.057a.758.758 0 0 1 .54.423c.148.276.259.727.33 1.47.07.738.099 1.737.099 3.091 0 .19-.087.354-.29.507-.209.159-.528.292-.948.397-.838.21-1.989.286-3.218.29a56.401 56.401 0 0 1-3.606-.13l-.786-.05c-.736-.048-1.339-.088-1.69-.088z" fill="url(#a)" stroke="#000" stroke-width=".5"/><path d="M34.387 3.276c.538-.77 1.22-1.126 1.874-1.126.65 0 1.327.351 1.863 1.109l5.78 14.763.011.028.017.024c.54.776.818 1.807.818 2.851 0 1.043-.277 2.075-.818 2.851l-.017.024-.01.028-5.78 14.79c-.537.757-1.214 1.108-1.864 1.108-.656 0-1.34-.358-1.879-1.132-.54-.776-.818-1.808-.818-2.851 0-1.044.278-2.075.818-2.851l.03-.042.01-.05 2.463-11.829.01-.05-.01-.052L34.43 9.063l-.01-.05-.03-.042c-.54-.776-.818-1.807-.818-2.85 0-1.041.276-2.07.814-2.845z" fill="url(#b)" stroke="#000" stroke-width=".5"/><path d="M10.613 38.6c-.538.768-1.22 1.125-1.874 1.125-.65 0-1.327-.351-1.863-1.109l-5.78-14.763-.011-.028-.017-.024C.528 23.025.25 21.994.25 20.95c0-1.043.277-2.075.818-2.851l.017-.024.01-.028 5.78-14.79C7.413 2.5 8.09 2.15 8.74 2.15c.656 0 1.34.358 1.879 1.132.54.776.818 1.808.818 2.851 0 1.044-.277 2.075-.818 2.851l-.027.04-.011.046-2.778 11.94-.013.058.013.057 2.769 11.694.01.047.028.038c.54.777.818 1.808.818 2.852 0 1.04-.276 2.069-.814 2.844z" fill="url(#c)" stroke="#000" stroke-width=".5"/><defs><linearGradient id="a" x1="23.13" y1=".392" x2="23.13" y2="45.074" gradientUnits="userSpaceOnUse"><stop offset=".34" stop-color="#7FFF00"/><stop offset=".495" stop-color="#4F9F00"/><stop offset=".635" stop-color="#7FFF00"/></linearGradient><linearGradient id="b" x1="39.157" y1="1.9" x2="39.157" y2="39.976" gradientUnits="userSpaceOnUse"><stop offset=".34" stop-color="#7FFF00"/><stop offset=".495" stop-color="#4F9F00"/><stop offset=".635" stop-color="#7FFF00"/></linearGradient><linearGradient id="c" x1="5.843" y1="39.975" x2="5.843" y2="1.899" gradientUnits="userSpaceOnUse"><stop offset=".34" stop-color="#7FFF00"/><stop offset=".495" stop-color="#4F9F00"/><stop offset=".635" stop-color="#7FFF00"/></linearGradient></defs></svg>